# xmcd
#
# Track frame offsets: 
#        183
#        10018
#        20905
#        33758
#        47250
#        63520
#        77518
#        87100
#        96940
#        114305
#        131520
#        153023
#
# Disc length: 2223 seconds
#
# Revision: 0
# Processed by: cddbd v1.5.2PL0 Copyright (c) Steve Scherf et al.
# Submitted via: ExactAudioCopy v0.99pb4
#
DISCID=7e08ad0c
DTITLE=Marshall and the Shooting Stars - Air Mail Special
DYEAR=1994
DGENRE=Western Swing
TTITLE0=In A Shanty In Old Shanty Town
TTITLE1=Hey Mr. Cottonpicker
TTITLE2=Frankie And Johnny
TTITLE3=Fat Gal
TTITLE4=I Love You So Much It Hurts
TTITLE5=Well Now Dig This
TTITLE6=Them There Eyes
TTITLE7=Five Foot Two Eyes Of Blue
TTITLE8=I'm Getting Sentimental Over You
TTITLE9=Airmail Special
TTITLE10=Honestly
TTITLE11=Rattle Shakin' Daddy
EXTD=
EXTT0=
EXTT1=
EXTT2=
EXTT3=
EXTT4=
EXTT5=
EXTT6=
EXTT7=
EXTT8=
EXTT9=
EXTT10=
EXTT11=
PLAYORDER=
